<svg xmlns="http://www.w3.org/2000/svg" xmlns:xlink="http://www.w3.org/1999/xlink" viewBox="0 0 113.09 85.62"><defs><style>.cls-1{isolation:isolate;}.cls-2{mix-blend-mode:multiply;}.cls-3{fill:#7700a2;}.cls-4{opacity:0.7;}.cls-5{fill:url(#linear-gradient);}</style><linearGradient id="linear-gradient" x1="-639.09" y1="-667.05" x2="-551.36" y2="-667.05" gradientTransform="translate(185.99 -842.87) rotate(-130.66)" gradientUnits="userSpaceOnUse"><stop offset="0" stop-color="#ec8580"/><stop offset="0.15" stop-color="#eb8489"/><stop offset="0.39" stop-color="#ea82a3"/><stop offset="0.69" stop-color="#e87fcc"/><stop offset="0.99" stop-color="#e57cfb"/></linearGradient></defs><title>pebble-pink-purple</title><g class="cls-1"><g id="Layer_2" data-name="Layer 2"><g id="Layer_1-2" data-name="Layer 1"><g class="cls-2"><path class="cls-3" d="M62.78,3.93C50.2-.75,37.11-1.87,23.19,4,10.28,9.45-1.23,24.3.11,40.12,1,50.38,6.86,58.77,13.29,65.43c9,9.33,19.82,16.61,31.78,19.21a41.75,41.75,0,0,0,35.44-8.32c10.29-8.44,17.2-23.23,16.16-37.61-1-13.84-8.56-21.62-18.24-27.23A103,103,0,0,0,62.78,3.93Z"/></g><g class="cls-4"><path class="cls-5" d="M107.45,33c-1.75-3.5-3.43-7-6.15-10a38.48,38.48,0,0,0-14.51-9.62C77.66,9.86,67.73,9.12,58,8.42,51.3,8,44.15,7.58,38.42,11c-4.12,2.47-6.94,6.6-9.52,10.65-3.26,5.13-6.45,10.58-7,16.64-.77,8.09,3.4,16.1,9.49,21.48s13.9,8.45,21.77,10.49,16,3.16,23.82,5.22c3.89,1,7.83,2.29,11.86,2a21.87,21.87,0,0,0,9.82-3.45,30.44,30.44,0,0,0,13.59-17.65,25.61,25.61,0,0,0,.09-12.81,23.46,23.46,0,0,0-2.5-6.14C109,36,108.2,34.48,107.45,33Z"/></g></g></g></g></svg>