<svg xmlns="http://www.w3.org/2000/svg" xmlns:xlink="http://www.w3.org/1999/xlink" viewBox="0 0 110.55 82.01"><defs><style>.cls-1{isolation:isolate;}.cls-2{mix-blend-mode:multiply;}.cls-3{fill:#5fddc5;}.cls-4{fill:url(#linear-gradient);}</style><linearGradient id="linear-gradient" x1="8.46" y1="41.24" x2="110.55" y2="41.24" gradientUnits="userSpaceOnUse"><stop offset="0" stop-color="#cb84de"/><stop offset="0.16" stop-color="#c288e0"/><stop offset="0.43" stop-color="#a892e7"/><stop offset="0.77" stop-color="#7fa3f1"/><stop offset="0.99" stop-color="#60b0f9"/></linearGradient></defs><title>pebble-teal</title><g class="cls-1"><g id="Layer_2" data-name="Layer 2"><g id="Layer_1-2" data-name="Layer 1"><g class="cls-2"><path class="cls-3" d="M24.16,32.39c-1.59,1-3.19,1.89-4.78,2.81C9.33,41-4.69,48.58,1.54,63c2.64,6.08,9.2,9.73,15.76,10.66S30.51,73.22,37,71.81q18.88-4.12,37.57-9.1c6.83-1.83,13.77-3.79,19.69-7.66s10.78-10,11.39-17c.85-9.76-6.23-18.23-13-25.3C86.75,6.58,79.84.17,71.36,0S55.74,5.93,50.11,12.21C43,20.19,33.69,26.67,24.16,32.39Z"/></g><g class="cls-2"><path class="cls-4" d="M31.41,1.34A28.47,28.47,0,0,0,9.59,22.74c-2.61,10.42-.31,21.44,3,31.67C15.64,64,20.19,74,29,78.86c9.58,5.28,21.44,3,31.94-.09A252,252,0,0,0,95.6,65.7c7.22-3.36,15.34-8.79,14.93-16.74-.28-5.52-4.86-9.92-9.79-12.42S90.3,32.83,85.42,30.23C77.24,25.88,71.59,18.08,65.19,11.4A36.14,36.14,0,0,0,31.41,1.34Z"/></g></g></g></g></svg>