<svg xmlns="http://www.w3.org/2000/svg" xmlns:xlink="http://www.w3.org/1999/xlink" viewBox="0 0 332.24 160.07"><defs><style>.cls-1{isolation:isolate;}.cls-2,.cls-4{mix-blend-mode:multiply;}.cls-3{fill:url(#linear-gradient);}.cls-4{fill:url(#linear-gradient-2);}.cls-5{fill:url(#linear-gradient-3);}</style><linearGradient id="linear-gradient" x1="11.76" y1="70.08" x2="237.07" y2="70.08" gradientTransform="translate(16.88 18.33) rotate(-6.95)" gradientUnits="userSpaceOnUse"><stop offset="0" stop-color="#5fddc5"/><stop offset="0.13" stop-color="#68ddbe"/><stop offset="0.33" stop-color="#82dbaa"/><stop offset="0.6" stop-color="#abd98a"/><stop offset="0.91" stop-color="#e4d75f"/><stop offset="0.99" stop-color="#f5d652"/></linearGradient><linearGradient id="linear-gradient-2" x1="-16.1" y1="69.73" x2="265.13" y2="69.73" gradientTransform="translate(16.88 18.33) rotate(-6.95)" gradientUnits="userSpaceOnUse"><stop offset="0" stop-color="#5fddc5"/><stop offset="0.17" stop-color="#68dfc8"/><stop offset="0.46" stop-color="#82e5d0"/><stop offset="0.82" stop-color="#abefdc"/><stop offset="0.99" stop-color="#c1f4e3"/></linearGradient><linearGradient id="linear-gradient-3" x1="-888" y1="91.53" x2="-555.76" y2="91.53" gradientTransform="matrix(-1, 0, 0, 1, -555.76, 0)" gradientUnits="userSpaceOnUse"><stop offset="0" stop-color="#ec8580"/><stop offset="0.2" stop-color="#ed8e7b"/><stop offset="0.53" stop-color="#f0a86c"/><stop offset="0.95" stop-color="#f4d155"/><stop offset="0.99" stop-color="#f5d652"/></linearGradient></defs><g class="cls-1"><g id="Layer_2" data-name="Layer 2"><g id="Layer_1-2" data-name="Layer 1"><g class="cls-2"><path class="cls-3" d="M189.91,147.51c-30.62,6.81-55.09-19.22-69.5-42.23-15.81-25.23-68.33,7-81.47-17.7C25.13,55.15,52.2,6.36,87,.58c19.46-3.94,34.77,12.74,41.5,30.27,8.84,23,37.44,10.93,54.17,8.19C297.61,8.25,276.77,132.31,189.91,147.51Z"/></g><path class="cls-4" d="M216.42,127.72c-22.33,3.69-43.11-5.68-61.71-17.12-49.14-30-93.64,12-120.28,17.16-41.55,8.07-17-68.59.88-88.6,17.56-25.46,64.72-31,76.1.74,24.39,55.19,90-30.13,153.64-11.83,22.76,6.55,29.4,33.16,19.36,52.08C271.88,106.39,245.07,124.22,216.42,127.72Z"/><path class="cls-5" d="M96.35,64.53c.78,17,7.68,32.06,14,47.48,3.45,8.78,8.69,17,10.58,26.35-1,4.57-14.43-6.76-16.25-8.45C83,110.39,68.19,84.8,54.62,59.33,49,50.18,39.82,27.81,31.41,23.12c-7.13-1.44-7.36,10.28-7,15C28.48,71,44.88,100.84,60.78,129.38c4.41,8.76,11.16,17.22,12.28,27.17-.61,3-6.08.18-7.83-.55-17.88-9.64-31.44-25.63-43.12-41.92-8.4-12.45-17-25.4-21-40A8.51,8.51,0,0,1,1,71.33c0-.24.09-.49.38-.54s.33.15.44.31.31.69.62.71c.46-.87-1.11-2.6-1.85-1.49-1.62,3.39.56,7.46,1.56,10.79,12.66,29.2,32.08,57.33,59,75,3.47,1.94,12,7.13,13.94,1.23.37-5.71-2.89-11-5.24-16.06C63.34,128.93,56.17,117,49.89,104.5,40.3,84.88,24.37,51.58,27.22,29.9c1.42-6.14,4.14-4.77,7.3-.61,19.08,29.43,31.7,63.14,55.33,89.6,6.46,7.44,13.45,14.58,21.73,20,12.74,8,13.93.84,8.7-10.08-8.15-18.83-17.66-37.5-21.13-57.91-.5-3.76-1.87-16,4.9-13.57,4.18,1.94,7.57,5.23,11.07,8.16,9.38,8.21,18.57,16.63,28.38,24.31,4,2.73,24.2,20.16,26.27,10.94-1.09-12.89-8.86-24.32-11-37.07-.64-3.34-1.73-12.45,4.13-9.6,11.07,5.28,62.84,53.76,70.78,35.45,2.3-6.87.5-15.08,5.22-21.09,6.92-8.8,31.82-.64,43-1.42,6.47.19,12.32-2.6,17.77-5.83a110.4,110.4,0,0,1,31.88-10.75c.39-.06,1.06-.24.62-.65-6.49-.42-13,1.29-19.21,2.94a67.06,67.06,0,0,0-17.13,7.67c-12.46,7.78-27.49,1.88-41,1.2C238.25,59.68,233,68,232.37,83.22c-.38,6.78-2.4,9.35-9.3,7.07-14.34-5.27-26.51-15-38.66-24.07l-11.48-8.89c-4-2.61-11.77-10.46-15.82-4.67-3.08,5.36-.78,11.91.67,17.45.68,4.73,12.49,29.51,8.88,30.75-5.09-.48-9.29-4.36-13.5-7C141.78,85.8,131.39,76.45,121,67.21,113.19,60.63,97.53,43.8,96.35,64.53Z"/></g></g></g></svg>