<svg xmlns="http://www.w3.org/2000/svg" xmlns:xlink="http://www.w3.org/1999/xlink" viewBox="0 0 104.48 85.32"><defs><style>.cls-1{opacity:0.9;}.cls-2{fill:url(#linear-gradient);}.cls-3{fill:url(#linear-gradient-2);}</style><linearGradient id="linear-gradient" x1="7.66" y1="42.66" x2="104.48" y2="42.66" gradientUnits="userSpaceOnUse"><stop offset="0" stop-color="#ec8580"/><stop offset="0.15" stop-color="#eb8489"/><stop offset="0.39" stop-color="#ea82a3"/><stop offset="0.69" stop-color="#e87fcc"/><stop offset="0.99" stop-color="#e57cfb"/></linearGradient><linearGradient id="linear-gradient-2" x1="-141.73" y1="-286.19" x2="-54" y2="-286.19" gradientTransform="translate(199.33 -223.4) rotate(-130.66)" xlink:href="#linear-gradient"/></defs><title>pebble-pink</title><g id="Layer_2" data-name="Layer 2"><g id="Layer_1-2" data-name="Layer 1"><g class="cls-1"><path class="cls-2" d="M36.19,83.29c4.19,1.06,8.32,2.16,12.76,2a42.42,42.42,0,0,0,18.48-5.22C77,75,84.71,67.19,92.32,59.52c5.19-5.24,10.64-11,11.89-18.23.89-5.23-.53-10.55-2.07-15.62-2-6.42-4.23-13-8.88-17.85C87,1.36,77.33-.91,68.44.32S51.38,5.88,44,11,29.9,22.09,22.52,27.19c-3.66,2.53-7.55,4.92-10.23,8.47a24,24,0,0,0-4.17,10.7,33.51,33.51,0,0,0,5,24.07,28.26,28.26,0,0,0,10.66,9.29A25.84,25.84,0,0,0,30.71,82C32.57,82.38,34.38,82.83,36.19,83.29Z"/></g><g class="cls-1"><path class="cls-3" d="M85.66,27c-1.74-3.51-3.42-7-6.15-10A38.59,38.59,0,0,0,65,7.4C55.88,3.87,46,3.14,36.18,2.44,29.51,2,22.36,1.59,16.63,5,12.51,7.5,9.69,11.62,7.11,15.67,3.85,20.8.67,26.26.09,32.31c-.77,8.09,3.4,16.11,9.5,21.49s13.89,8.45,21.76,10.49,16,3.16,23.82,5.22c3.9,1,7.84,2.28,11.86,2a21.77,21.77,0,0,0,9.82-3.44A30.43,30.43,0,0,0,90.44,50.44a25.54,25.54,0,0,0,.09-12.82A23.37,23.37,0,0,0,88,31.49C87.18,30,86.41,28.5,85.66,27Z"/></g></g></g></svg>